<svg width="80" height="114" viewBox="0 0 80 114" fill="none" xmlns="http://www.w3.org/2000/svg">
<path d="M34.464 90.96C28.384 90.96 23.136 89.968 18.72 87.984C14.368 85.936 10.976 82.992 8.544 79.152C6.176 75.248 4.864 70.512 4.608 64.944C4.544 62.192 4.512 59.28 4.512 56.208C4.512 53.072 4.544 50.096 4.608 47.28C4.864 41.84 6.208 37.232 8.64 33.456C11.072 29.68 14.496 26.8 18.912 24.816C23.328 22.832 28.512 21.84 34.464 21.84C39.264 21.84 43.52 22.448 47.232 23.664C50.944 24.816 54.048 26.384 56.544 28.368C59.104 30.352 61.024 32.528 62.304 34.896C63.648 37.264 64.352 39.6 64.416 41.904C64.48 42.48 64.288 42.96 63.84 43.344C63.456 43.728 62.976 43.92 62.4 43.92H48.384C47.68 43.92 47.136 43.824 46.752 43.632C46.432 43.376 46.144 43.024 45.888 42.576C45.44 41.616 44.768 40.624 43.872 39.6C43.04 38.512 41.856 37.584 40.32 36.816C38.848 36.048 36.896 35.664 34.464 35.664C30.816 35.664 27.936 36.624 25.824 38.544C23.776 40.464 22.656 43.536 22.464 47.76C22.272 53.264 22.272 58.832 22.464 64.464C22.656 68.944 23.84 72.176 26.016 74.16C28.192 76.144 31.072 77.136 34.656 77.136C37.088 77.136 39.232 76.72 41.088 75.888C43.008 75.056 44.512 73.776 45.6 72.048C46.688 70.256 47.232 67.984 47.232 65.232V63.408H38.208C37.504 63.408 36.896 63.184 36.384 62.736C35.936 62.224 35.712 61.616 35.712 60.912V53.808C35.712 53.104 35.936 52.528 36.384 52.08C36.896 51.568 37.504 51.312 38.208 51.312H62.4C63.104 51.312 63.68 51.568 64.128 52.08C64.576 52.528 64.8 53.104 64.8 53.808V64.752C64.8 70.256 63.552 74.96 61.056 78.864C58.56 82.768 55.008 85.776 50.4 87.888C45.856 89.936 40.544 90.96 34.464 90.96Z" fill="black" fill-opacity="0.71"/>
<rect x="66" y="77" width="14" height="13" rx="3" fill="#5F0A61"/>
</svg>
